HIERARCHY
ROOT Hips
{
	OFFSET -0.001795 -0.223333 0.028219
	CHANNELS 6 Xposition Yposition Zposition Zrotation Yrotation Xrotation 
	JOINT LeftUpLeg
	{
		OFFSET 0.069520 -0.091406 -0.006815
		CHANNELS 3 Zrotation Yrotation Xrotation
		JOINT LeftLeg
		{
			OFFSET 0.034277 -0.375199 -0.004496
			CHANNELS 3 Zrotation Yrotation Xrotation
			JOINT LeftFoot
			{
				OFFSET -0.013596 -0.397961 -0.043693
				CHANNELS 3 Zrotation Yrotation Xrotation
				JOINT LeftToe
				{
					OFFSET 0.026358 -0.055791 0.119288
					CHANNELS 3 Zrotation Yrotation Xrotation
					End Site
					{
						OFFSET 0.000000 0.000000 0.000000
					}
				}
			}
		}
	}
	JOINT RightUpLeg
	{
		OFFSET -0.067670 -0.090522 -0.004320
		CHANNELS 3 Zrotation Yrotation Xrotation
		JOINT RightLeg
		{
			OFFSET -0.038290 -0.382569 -0.008850
			CHANNELS 3 Zrotation Yrotation Xrotation
			JOINT RightFoot
			{
				OFFSET 0.015774 -0.398415 -0.042312
				CHANNELS 3 Zrotation Yrotation Xrotation
				JOINT RightToe
				{
					OFFSET -0.025372 -0.048144 0.123348
					CHANNELS 3 Zrotation Yrotation Xrotation
					End Site
					{
						OFFSET 0.000000 0.000000 0.000000
					}
				}
			}
		}
	}
	JOINT Spine
	{
		OFFSET -0.002533 0.108963 -0.026696
		CHANNELS 3 Zrotation Yrotation Xrotation
		JOINT Spine1
		{
			OFFSET 0.005487 0.135180 0.001092
			CHANNELS 3 Zrotation Yrotation Xrotation
			JOINT Spine2
			{
				OFFSET 0.001457 0.052922 0.025425
				CHANNELS 3 Zrotation Yrotation Xrotation
				JOINT Neck
				{
					OFFSET -0.002778 0.213870 -0.042857
					CHANNELS 3 Zrotation Yrotation Xrotation
					JOINT Head
					{
						OFFSET 0.005152 0.064970 0.051349
						CHANNELS 3 Zrotation Yrotation Xrotation
						End Site
						{
							OFFSET 0.000000 0.000000 0.000000
						}
					}
				}
				JOINT LeftShoulder
				{
					OFFSET 0.078845 0.121749 -0.034090
					CHANNELS 3 Zrotation Yrotation Xrotation
					JOINT LeftArm
					{
						OFFSET 0.090977 0.030469 -0.008868
						CHANNELS 3 Zrotation Yrotation Xrotation
						JOINT LeftForeArm
						{
							OFFSET 0.259612 -0.012772 -0.027456
							CHANNELS 3 Zrotation Yrotation Xrotation
							JOINT LeftHand
							{
								OFFSET 0.249234 0.008986 -0.001171
								CHANNELS 3 Zrotation Yrotation Xrotation
								End Site
								{
									OFFSET 0.000000 0.000000 0.000000
								}
							}
						}
					}
				}
				JOINT RightShoulder
				{
					OFFSET -0.081759 0.118833 -0.038615
					CHANNELS 3 Zrotation Yrotation Xrotation
					JOINT RightArm
					{
						OFFSET -0.096012 0.032551 -0.009143
						CHANNELS 3 Zrotation Yrotation Xrotation
						JOINT RightForeArm
						{
							OFFSET -0.253742 -0.013329 -0.021401
							CHANNELS 3 Zrotation Yrotation Xrotation
							JOINT RightHand
							{
								OFFSET -0.255298 0.007772 -0.005559
								CHANNELS 3 Zrotation Yrotation Xrotation
								End Site
								{
									OFFSET 0.000000 0.000000 0.000000
								}
							}
						}
					}
				}
			}
		}
	}
}
MOTION
Frames: 6
Frame Time: 0.050000
0.000000 0.951828 0.000000 0.391194 -5.049402 5.288623 -2.987639 0.300322 2.000290 2.075371 0.408259 -11.507157 -5.356627 -6.638807 8.685488 0.000000 0.000000 0.000000 0.964562 0.159252 -1.967983 -1.903532 -0.088272 -4.890068 4.066296 5.777556 6.102373 0.000000 0.000000 0.000000 3.586927 0.108257 -2.715830 -1.341304 0.633660 -2.515263 -0.584073 1.596723 8.107734 1.713901 0.222872 -19.341178 0.000000 0.000000 0.000000 -9.965834 -5.981418 1.953173 -9.726434 2.625867 -1.269808 11.277496 4.010734 0.324025 0.000000 0.000000 0.000000 6.096530 4.604537 1.270498 12.854311 -3.552597 -1.430039 -9.285103 4.436511 -0.040191 0.000000 0.000000 0.000000 
0.000123 0.950328 0.001587 0.295246 -4.792989 5.469591 -1.707472 0.329567 2.682896 0.391304 0.518323 -13.330565 -6.685536 -8.250504 10.124142 0.000000 0.000000 0.000000 0.774612 0.131929 -1.655503 -1.719967 -0.108229 -5.096937 3.502168 4.929998 5.495362 0.000000 0.000000 0.000000 3.930716 0.086362 -2.508571 -1.555877 0.739179 -0.467873 -1.505264 1.501863 5.687958 1.275873 0.670189 -21.185515 0.000000 0.000000 0.000000 -8.845539 -5.672398 1.743505 -9.323713 2.231114 -1.152778 10.963459 4.033873 0.307681 0.000000 0.000000 0.000000 6.393278 3.536297 0.820683 11.909527 -5.208275 -1.345525 -8.356255 5.511764 -0.064959 0.000000 0.000000 0.000000 
-0.000045 0.949485 0.002922 0.200588 -5.434741 5.288053 -1.034646 0.268964 2.401307 -0.160921 0.428088 -11.131584 -5.492980 -7.841467 6.934512 0.000000 0.000000 0.000000 0.712379 0.177087 -2.083526 -0.894168 -0.115519 -4.310717 3.304529 5.049025 4.579119 0.000000 0.000000 0.000000 4.021597 0.078005 -2.355816 -2.274956 1.043608 -2.870558 -0.834699 2.526974 8.487010 1.622815 0.408789 -19.959104 0.000000 0.000000 0.000000 -7.097550 -6.245247 2.028441 -10.748580 2.794741 -1.412744 10.223491 4.224429 0.283516 0.000000 0.000000 0.000000 5.686944 4.420512 1.289085 12.407450 -5.407248 -1.497695 -9.120503 3.700416 0.008646 0.000000 0.000000 0.000000 
-0.000327 0.949710 0.004286 0.190183 -5.714028 5.504176 -0.512341 0.268097 2.590524 -1.208530 0.468305 -11.597159 -6.193089 -8.855658 7.533160 0.000000 0.000000 0.000000 0.335472 0.161236 -1.829787 -0.011754 -0.196750 -5.251053 3.817560 5.581549 5.496112 0.000000 0.000000 0.000000 3.947890 0.109703 -2.783865 -2.929515 1.341381 -2.394514 -0.553288 2.554507 8.223545 1.005622 0.796957 -20.700868 0.000000 0.000000 0.000000 -7.467605 -6.924643 2.319705 -11.141204 4.401173 -1.532889 11.249524 4.035077 0.317427 0.000000 0.000000 0.000000 6.272769 5.425225 1.655854 11.222950 -7.963383 -1.418614 -8.163632 3.366995 0.031207 0.000000 0.000000 0.000000 
-0.000702 0.949997 0.005520 0.209821 -5.343945 5.168280 -0.404674 0.320173 3.147641 -1.532691 0.467889 -11.531109 -6.011157 -8.748835 7.049277 0.000000 0.000000 0.000000 0.289561 0.132398 -1.512850 0.262240 -0.209491 -5.230242 3.296684 4.718461 5.050150 0.000000 0.000000 0.000000 3.871581 0.076640 -2.315354 -3.062692 1.393434 -2.921585 -0.577429 2.704543 8.388389 1.239265 0.666464 -20.188374 0.000000 0.000000 0.000000 -7.126605 -7.085480 2.356583 -11.730145 4.561398 -1.630358 11.232583 3.111583 0.253597 0.000000 0.000000 0.000000 6.154868 5.170735 1.588932 11.738739 -8.090278 -1.521741 -8.373260 2.239505 0.082392 0.000000 0.000000 0.000000 
-0.000939 0.949810 0.006656 0.316162 -4.709242 5.016404 -0.580664 0.342215 3.292139 -1.434621 0.450730 -11.268763 -6.597494 -9.904809 6.880587 0.000000 0.000000 0.000000 -0.283906 0.109993 -1.063641 0.789792 -0.240158 -5.367022 3.183564 4.490176 5.082922 0.000000 0.000000 0.000000 3.396703 0.064622 -2.120183 -3.117956 1.434280 -2.315813 -0.167770 2.289398 8.042654 0.787693 0.968962 -21.081041 0.000000 0.000000 0.000000 -7.469293 -6.911909 2.287364 -12.277462 4.488990 -1.711286 12.105400 3.065097 0.280160 0.000000 0.000000 0.000000 5.823592 5.639702 1.774244 12.366973 -8.606952 -1.644162 -8.811081 1.269894 0.128459 0.000000 0.000000 0.000000 
